<svg width="43" height="55" viewBox="0 0 43 55" fill="none" xmlns="http://www.w3.org/2000/svg">
<rect width="43" height="55" fill="#1E1E1E"/>
<rect width="309" height="160" transform="translate(-49 -37)" fill="white"/>
<path fill-rule="evenodd" clip-rule="evenodd" d="M17.0603 35.6423V20.1896L28.6774 27.9423L17.0603 35.6423ZM42.57 17.5106C42.57 17.5106 42.149 13.7202 40.8607 12.0519C39.225 9.86106 37.3921 9.8519 36.5518 9.72356C30.5354 9.16669 21.509 9.16669 21.509 9.16669H21.491C21.491 9.16669 12.4646 9.16669 6.44821 9.72356C5.60612 9.8496 3.77504 9.86106 2.13746 12.0519C0.84925 13.7202 0.43 17.5106 0.43 17.5106C0.43 17.5106 0 21.9634 0 26.4115V30.5869C0 35.0373 0.43 39.4877 0.43 39.4877C0.43 39.4877 0.84925 43.2759 2.13746 44.9465C3.77504 47.1373 5.92325 47.0686 6.88 47.2977C10.32 47.7194 21.5 47.85 21.5 47.85C21.5 47.85 30.5354 47.834 36.5518 47.2771C37.3939 47.1488 39.225 47.1373 40.8607 44.9465C42.1507 43.2759 42.57 39.4877 42.57 39.4877C42.57 39.4877 43 35.0373 43 30.5846V26.4138C43 21.9634 42.57 17.5106 42.57 17.5106Z" fill="#F24E1E"/>
</svg>
